<svg xmlns="http://www.w3.org/2000/svg" xmlns:xlink="http://www.w3.org/1999/xlink" width="600" zoomAndPan="magnify" viewBox="0 0 450 449.999984" height="600" preserveAspectRatio="xMidYMid meet" version="1.0"><defs><clipPath id="7726246f21"><path d="M 0 0 L 450 0 L 450 449.984375 L 0 449.984375 Z M 0 0 " clip-rule="nonzero"/></clipPath></defs><g clip-path="url(#7726246f21)"><path fill="#fabec0" d="M 466.949219 450.007812 L 0.00390625 450.007812 L 0.00390625 3.324219 C 9.730469 0.75 19.976562 -0.03125 29.894531 1.15625 C 59.730469 4.730469 86.144531 23.335938 105.257812 46.523438 C 139.335938 87.867188 152.8125 145.40625 140.636719 197.589844 C 135.082031 221.378906 124.917969 247.882812 137.722656 268.699219 C 150.195312 288.972656 179.144531 292.441406 201.859375 285.324219 C 224.578125 278.199219 243.964844 263.246094 265.757812 253.671875 C 287.558594 244.101562 315.136719 240.875 333.503906 256.011719 C 348.207031 268.125 352.886719 288.5625 354.085938 307.570312 C 355.28125 326.582031 353.992188 346.191406 360.382812 364.136719 C 370.78125 393.316406 399.011719 411.855469 426.246094 426.617188 C 439.878906 434.011719 454.066406 441.304688 466.949219 450.007812 Z M 466.949219 450.007812 " fill-opacity="1" fill-rule="nonzero"/></g></svg>